<?xml version="1.0" encoding="UTF-8" standalone="no"?>
<!DOCTYPE svg PUBLIC "-//W3C//DTD SVG 1.1//EN" "http://www.w3.org/Graphics/SVG/1.1/DTD/svg11.dtd">
<svg width="100%" height="100%" viewBox="0 0 191 177" version="1.1" xmlns="http://www.w3.org/2000/svg" xmlns:xlink="http://www.w3.org/1999/xlink" xml:space="preserve" xmlns:serif="http://www.serif.com/" style="fill-rule:evenodd;clip-rule:evenodd;stroke-linejoin:round;stroke-miterlimit:2;">
    <g transform="matrix(1,0,0,1,0,-11647.3)">
        <g id="Artboard14" transform="matrix(1,0,0,1,640.735,4.3669)">
            <rect x="-640.735" y="11642.9" width="190.329" height="176.546" style="fill:none;"/>
            <g transform="matrix(1,0,0,1,-1433.16,11561.2)">
                <g transform="matrix(0.929065,0,0,0.929065,102.619,-731.794)">
                    <circle cx="836.335" cy="970.596" r="90.817"/>
                    <clipPath id="_clip1">
                        <circle cx="836.335" cy="970.596" r="90.817"/>
                    </clipPath>
                    <g clip-path="url(#_clip1)">
                        <g transform="matrix(1.42603,0,0,1.52405,-459.477,-16738.3)">
                            <rect x="924.733" y="11557" width="63.267" height="152" style="fill:rgb(255,138,10);fill-opacity:0.67;"/>
                        </g>
                        <g transform="matrix(1,0,0,1,18.6299,-4.96798)">
                            <g transform="matrix(0.826742,0,0,-0.723752,105.19,9449.29)">
                                <path d="M616.956,11691.1L943.627,11691.1" style="fill:none;"/>
                            </g>
                            <g transform="matrix(0.826742,0,0,-0.723752,105.19,9449.29)">
                                <path d="M616.956,11684.4C613.723,11684.4 611.098,11687.4 611.098,11691.1C611.098,11694.8 613.723,11697.8 616.956,11697.8L943.627,11697.8C946.86,11697.8 949.485,11694.8 949.485,11691.1C949.485,11687.4 946.86,11684.4 943.627,11684.4L616.956,11684.4Z" style="fill:rgb(255,138,10);fill-opacity:0.67;"/>
                            </g>
                            <g transform="matrix(5.06234e-17,0.826742,0.723752,-4.4317e-17,-7566.4,488.192)">
                                <path d="M616.956,11691.1L943.627,11691.1" style="fill:none;"/>
                            </g>
                            <g transform="matrix(5.06234e-17,0.826742,0.723752,-4.4317e-17,-7567.48,488.192)">
                                <path d="M616.956,11684.4C613.723,11684.4 611.098,11687.4 611.098,11691.1C611.098,11694.8 613.723,11697.8 616.956,11697.8L943.627,11697.8C946.86,11697.8 949.485,11694.8 949.485,11691.1C949.485,11687.4 946.86,11684.4 943.627,11684.4L616.956,11684.4Z" style="fill:rgb(255,138,10);fill-opacity:0.67;"/>
                            </g>
                        </g>
                        <g transform="matrix(-1.56226,0.48849,-0.552434,-1.10192,8577.39,13395.2)">
                            <path d="M849.34,11645.9C855.141,11639.9 862.457,11633.5 872.394,11626.3C877.902,11622.3 886.939,11616.1 902.335,11607.9C907.607,11605.1 915.902,11601.2 917.65,11600.4L917.794,11600.3L918.708,11600.3C918.917,11600.4 919.137,11600.5 919.218,11600.5C919.32,11600.6 919.424,11600.6 919.532,11600.7C919.85,11600.8 920.034,11601.2 920.076,11601.6C920.102,11601.9 920.077,11602.2 920.01,11602.5C919.919,11602.7 919.836,11602.9 919.762,11603.1L919.563,11603.6L919.523,11603.7L919.482,11603.8L919.319,11604.3L918.905,11605L918.048,11605.8C916.56,11606.8 910.994,11610.6 901.859,11617.5C886.48,11629 873.605,11640.6 867.019,11646.9C863.606,11650.1 858.005,11655.6 854.586,11659.1C856.778,11668.3 857.45,11678 857.569,11679.7C859.366,11705.5 854.237,11729.3 850.327,11744C850.21,11744.5 850.145,11744.8 850.071,11745L849.863,11745.4L849.532,11745.9L849.268,11746.2L848.625,11746.6C848.44,11746.7 848.213,11746.7 848.069,11746.8L847.993,11746.8L847.878,11746.8L847.555,11746.6L847.468,11746.5C847.422,11746.5 847.375,11746.4 847.334,11746.4L847.18,11746.1L847.003,11745.4C846.998,11745.1 847.024,11744.8 847.034,11744.5C847.065,11743.7 851.105,11723.4 850.131,11700.9C849.755,11692.2 848.811,11681.9 845.397,11668.5C844.261,11669.7 843.07,11671 841.871,11672.3C841.485,11672.8 838.105,11676.3 832.459,11683.2C831.872,11683.9 826.303,11690.7 821.034,11698.3C819.115,11701.1 813.335,11710.1 811.591,11712.5C811.38,11712.7 810.751,11712.3 810.564,11712.2C810.53,11712.2 810.458,11712.2 810.465,11712.2C810.687,11711.2 809.23,11712 809.754,11709.6C810.288,11707.1 812.805,11701.5 813.251,11700.5C819.405,11686.7 824.939,11677.8 827.657,11673.5C828.315,11672.5 832.439,11666.2 836.037,11661.5C837.902,11659 839.874,11656.5 842.071,11653.9C841.95,11653.1 841.891,11652.7 841.718,11651.4C841.522,11649.8 841.52,11649.8 841.368,11648.3C841.355,11648.1 841.005,11644.8 840.905,11643.6L840.937,11642.6C841.01,11641.9 841.059,11641.1 841.196,11640.6L841.565,11639.8L841.86,11639.4L842.128,11639.2L842.426,11639.1C842.686,11639.2 843.288,11639.4 843.712,11639.5L844.13,11639.8C844.428,11640 844.95,11640.5 844.99,11640.5C845.371,11640.9 847.491,11643.3 847.665,11643.5C848.321,11644.4 848.872,11645.2 849.34,11645.9ZM846.109,11750.3L845.926,11750.2C845.949,11750.2 845.998,11750.3 845.998,11750.3C845.998,11750.3 845.896,11750.2 845.753,11750.1L847.342,11746.5L847.699,11746.7C847.776,11746.7 847.85,11746.8 847.902,11746.8L846.109,11750.3ZM835.59,11710.4C836.044,11711.5 836.155,11711.8 835.927,11713.4C835.802,11714.2 835.069,11718.2 833.752,11722C833.609,11722.4 832.818,11724.7 831.813,11726.7C831.343,11727.7 830.89,11728.6 830.379,11729C830.291,11729.1 829.775,11729.5 829.246,11729.2C829.05,11729.1 828.818,11729 828.69,11729C828.641,11728.8 828.556,11728.5 828.489,11728.2C828.318,11727.4 828.469,11727.2 828.587,11726.7C828.722,11726.1 828.861,11725.4 828.947,11724.5C829.234,11721.3 829.081,11718.1 828.988,11715.8C828.953,11714.9 828.958,11713.8 828.959,11713.6C829.123,11713.1 829.597,11712.2 829.951,11711.6L835.298,11709.9L835.59,11710.4Z" style="fill:rgb(255,148,30);"/>
                            <path d="M918.434,11595L918.288,11595L919.202,11595C919.663,11594.9 920.11,11595 920.524,11595.2C920.798,11595.3 921.088,11595.5 921.194,11595.6C921.16,11595.5 921.125,11595.5 921.089,11595.5L922.159,11596.1L922.977,11597L923.728,11598.5L924.046,11600.2L924.054,11601.8L923.817,11603.3C923.691,11603.8 923.504,11604.4 923.262,11604.9L923.096,11605.3C923.82,11603.3 923.55,11601.7 923.026,11600.6C923.131,11600.9 923.219,11601.1 923.289,11601.4C923.377,11601.8 923.434,11602.1 923.461,11602.5C923.264,11600.7 922.198,11599.5 921.63,11599C921.646,11599.2 921.651,11599.5 921.646,11599.7L921.442,11598.9L921.406,11598.9C921.453,11599.1 921.529,11599.6 921.623,11600.1L921.609,11600.3L921.592,11600.4C921.977,11602.7 922.663,11606.4 922.988,11605.6L922.852,11606C922.699,11606.4 922.512,11606.8 922.293,11607.1L921.879,11607.8C921.582,11608.3 921.231,11608.8 920.842,11609.1L919.985,11609.9C919.799,11610.1 919.605,11610.3 919.405,11610.4C917.931,11611.4 912.419,11615.2 903.371,11622C888.185,11633.4 875.472,11644.9 868.969,11651C866.353,11653.5 862.439,11657.3 859.234,11660.5C860.89,11668.9 861.442,11676.8 861.55,11678.4C863.413,11705.1 858.128,11729.8 854.076,11745.1C853.907,11745.7 853.803,11746.1 853.696,11746.4C853.606,11746.7 853.501,11747 853.381,11747.2L853.174,11747.7C853.021,11748 852.846,11748.3 852.651,11748.6L852.32,11749.1C853.247,11747.7 853.681,11745.9 853.483,11744.3C853.295,11742.7 852.561,11741.5 851.498,11740.9L851.361,11741.8L851.415,11743.2C851.346,11743.1 851.272,11743 851.193,11742.8L851.151,11743.1C851.256,11743.3 851.349,11743.4 851.432,11743.6L851.605,11748C851.538,11748.3 851.459,11748.5 851.368,11748.7L851.142,11743.2C851.071,11743.6 851.03,11743.9 851.027,11743.9C851.021,11744.1 850.997,11744.3 851,11744.4L850.915,11743.7L850.9,11743.7L850.728,11746.4C850.664,11745.5 850.518,11744.7 850.36,11743.9C854.266,11729.2 859.361,11705.4 857.569,11679.7C857.45,11678 856.778,11668.3 854.586,11659.1C858.005,11655.6 863.606,11650.1 867.019,11646.9C873.605,11640.6 886.48,11629 901.859,11617.5C910.824,11610.7 916.351,11606.9 917.961,11605.8C917.965,11605.8 917.97,11605.8 917.974,11605.8L917.962,11605.8C917.992,11605.8 918.021,11605.8 918.048,11605.8L918.905,11605L919.319,11604.3L919.482,11603.8L919.523,11603.7L919.563,11603.6L919.762,11603.1C919.836,11602.9 919.919,11602.7 920.01,11602.5C920.077,11602.2 920.102,11601.9 920.076,11601.6C920.034,11601.2 919.85,11600.8 919.532,11600.7C919.424,11600.6 919.32,11600.6 919.218,11600.5C919.139,11600.5 918.926,11600.4 918.721,11600.3L918.89,11600.2L918.897,11600.1L918.616,11600.3L918.476,11600.3L918.784,11598.9C918.469,11599 918.144,11599.2 917.825,11599.4C918.136,11599.2 918.464,11599 918.8,11598.8L918.802,11598.8C918.012,11599.1 917.17,11599.7 916.499,11600.9C913.549,11602.3 906.839,11605.5 902.335,11607.9C886.939,11616.1 877.902,11622.3 872.394,11626.3C862.457,11633.5 855.141,11639.9 849.34,11645.9C848.872,11645.2 848.321,11644.4 847.665,11643.5C847.491,11643.3 845.371,11640.9 844.99,11640.5C844.95,11640.5 844.428,11640 844.13,11639.8L843.712,11639.5C843.288,11639.4 842.686,11639.2 842.426,11639.1L842.128,11639.2L841.86,11639.4L841.565,11639.8L841.196,11640.6C841.059,11641.1 841.01,11641.9 840.937,11642.6L840.905,11643.6C841.005,11644.8 841.355,11648.1 841.368,11648.3C841.52,11649.8 841.522,11649.8 841.718,11651.4C841.891,11652.7 841.95,11653.1 842.071,11653.9C839.874,11656.5 837.902,11659 836.037,11661.5C832.439,11666.2 828.315,11672.5 827.657,11673.5C824.939,11677.8 819.405,11686.7 813.251,11700.5C812.805,11701.5 810.288,11707.1 809.754,11709.6C809.23,11712 810.687,11711.2 810.465,11712.2C810.458,11712.2 810.53,11712.2 810.564,11712.2C810.751,11712.3 811.38,11712.7 811.591,11712.5C813.335,11710.1 819.115,11701.1 821.034,11698.3C826.303,11690.7 831.872,11683.9 832.459,11683.2C838.105,11676.3 841.485,11672.8 841.871,11672.3C843.07,11671 844.261,11669.7 845.397,11668.5C848.811,11681.9 849.755,11692.2 850.131,11700.9C851.105,11723.4 847.065,11743.7 847.034,11744.5C847.024,11744.8 846.998,11745.1 847.003,11745.4L847.18,11746.1L847.306,11746.4L846.144,11749.1L846.755,11747.6L845.24,11751L845.255,11751.2L843.638,11755C843.614,11755 843.485,11754.9 843.313,11754.8C841.674,11753.5 841.269,11750.5 842.381,11748L843.013,11746.6C843.01,11746.5 843.008,11746.4 843.006,11746.4C842.999,11745.9 843.026,11745.5 843.042,11745.1C843.072,11744.3 847.101,11724.2 846.14,11702.1C845.841,11695.2 845.166,11687.2 843.082,11677.3C841.644,11678.9 838.828,11682 834.888,11686.8C834.318,11687.5 828.9,11694.1 823.775,11701.6C821.827,11704.4 815.954,11713.5 814.182,11715.9L813.27,11716.9L812.382,11717.5L810.644,11717.9L809.478,11717.5C809.559,11717.5 809.646,11717.5 809.737,11717.5L808.102,11717L807.238,11716L806.994,11715.4L806.621,11715.1L806.116,11714.1L805.775,11712.9L805.644,11711.2L805.925,11708.9C806.541,11706.1 809.377,11699.6 809.892,11698.4C816.247,11684.1 821.962,11675 824.768,11670.5C825.452,11669.5 829.735,11662.9 833.472,11658C834.818,11656.2 836.218,11654.4 837.713,11652.6C837.562,11651.4 837.545,11651.2 837.401,11649.8C837.388,11649.6 837.032,11646.3 836.93,11645.1C836.909,11644.8 836.902,11644.5 836.911,11644.3L836.943,11643.2C836.949,11643.1 836.962,11642.9 836.983,11642.7C837.09,11641.7 837.208,11640.5 837.409,11639.7C837.521,11639.3 837.675,11638.8 837.869,11638.4L838.238,11637.6C838.463,11637.1 838.738,11636.6 839.054,11636.2L839.349,11635.9C839.675,11635.4 840.034,11635.1 840.412,11634.8L840.666,11634.6L840.695,11634.6C841.561,11634.1 842.505,11634 843.366,11634.2L843.92,11634.1C843.92,11634.1 843.861,11634.1 843.746,11634L844.218,11634.1L843.931,11633.9C844.185,11634 844.774,11634.2 845.189,11634.3C845.388,11634.4 845.581,11634.5 845.766,11634.6L846.184,11634.8C846.37,11634.9 846.547,11635.1 846.713,11635.2C847.055,11635.5 847.652,11636.1 847.698,11636.1C848.021,11636.4 849.449,11638 850.219,11638.9C855.673,11633.6 862.354,11627.9 870.941,11621.7C876.544,11617.6 885.735,11611.3 901.394,11603C906.738,11600.2 915.144,11596.2 916.916,11595.4L917.015,11595.3L919.317,11595.3C919.359,11595.3 919.401,11595.3 919.442,11595.3C919.442,11595.3 919.412,11595.3 919.354,11595.3L919.585,11595.2L919.161,11595.2C918.992,11595.1 918.748,11595 918.434,11595ZM923.096,11605.3L923.084,11605.3C923.078,11605.4 923.072,11605.4 923.066,11605.4L923.064,11605.4C922.742,11606 922.017,11602.3 921.623,11600.1C921.635,11600 921.643,11599.8 921.646,11599.7L923.094,11605.3C923.405,11604.4 923.53,11603.4 923.461,11602.5C923.548,11603.3 923.466,11604.2 923.095,11605.3L923.096,11605.3ZM851.415,11743.2C851.973,11744.2 852.199,11745.5 851.991,11747C851.916,11747.5 851.79,11748 851.621,11748.4L851.605,11748C852.054,11746.5 851.985,11744.9 851.432,11743.6L851.415,11743.2ZM851.621,11748.4L851.678,11749.9L851.427,11750.2L851.38,11749C851.468,11748.8 851.548,11748.6 851.621,11748.4ZM851.38,11749C851.156,11749.5 850.883,11749.9 850.574,11750.3L851.092,11749.3C851.194,11749.1 851.286,11748.9 851.368,11748.7L851.38,11749ZM850.574,11750.3L850.473,11750.5L850.446,11751L850.158,11751.1L849.298,11752.8C849.542,11752.3 849.732,11751.8 849.867,11751.3L849.803,11751.4C849.667,11751.4 849.53,11751.5 849.391,11751.6L849.125,11752.2L849.061,11751.7L848.962,11751.8C848.763,11751.8 848.52,11751.9 848.365,11751.9C848.6,11751.9 848.829,11751.8 849.051,11751.6L849.048,11751.6C849.229,11751.5 849.393,11751.4 849.541,11751.2L849.478,11751.4C849.637,11751.3 849.792,11751.1 849.941,11751C849.966,11750.9 849.988,11750.8 850.007,11750.7C850.251,11750.3 850.426,11749.8 850.546,11749.4L850.478,11750.4L850.574,11750.3ZM849.048,11751.6C848.73,11751.8 848.358,11752 847.926,11752C847.555,11752.1 847.552,11751.3 847.738,11750.1L847.42,11750.3L848.383,11746.8L848.406,11747C848.433,11746.9 848.46,11746.8 848.486,11746.6C848.534,11746.6 848.581,11746.6 848.625,11746.6L849.147,11746.3C849.558,11746.8 849.854,11747.5 850.002,11748.3C850.038,11748.5 850.064,11748.7 850.082,11748.9L848.767,11749.6L849.048,11751.6ZM847.42,11750.3L846.925,11752.1L846.816,11752.1L847.286,11750.4L847.42,11750.3ZM847.286,11750.4L845.941,11751.1L846.637,11749.3L847.902,11746.8C847.85,11746.8 847.776,11746.7 847.699,11746.7L847.685,11746.7L847.694,11746.7L847.878,11746.8L847.993,11746.8L848.069,11746.8C848.131,11746.8 848.208,11746.7 848.291,11746.7L847.286,11750.4ZM845.941,11751.1L845.706,11751.6L845.437,11751.5L845.425,11751.5L845.418,11751.5C845.443,11751.5 845.468,11751.5 845.495,11751.5L845.621,11751.6L845.414,11751.5L843.932,11755.2L843.758,11755.1L845.264,11751.3L845.267,11751.3L845.305,11751.4L845.431,11751.3L845.879,11750.2C845.896,11750.2 845.911,11750.2 845.924,11750.2L845.514,11751.3L845.941,11751.1ZM845.264,11751.3L845.255,11751.2L846.144,11749.1L845.264,11751.3ZM917.015,11595.3C917.582,11595.1 918.058,11595 918.434,11595L919.161,11595.2C919.243,11595.2 919.307,11595.2 919.354,11595.3L919.317,11595.3C918.598,11595 917.797,11595 917.015,11595.3ZM850.728,11746.4C850.78,11747.2 850.779,11747.9 850.69,11748.6L850.591,11748.6L850.728,11746.4ZM850.69,11748.6L850.714,11748.6L850.682,11748.6L850.69,11748.6ZM850.682,11748.6C850.648,11748.9 850.603,11749.1 850.546,11749.4L850.575,11748.9L850.682,11748.6ZM850.082,11748.9L850.591,11748.6L850.575,11748.9L850.087,11750C850.115,11749.6 850.113,11749.3 850.082,11748.9ZM848.419,11746.7L848.383,11746.8L848.367,11746.7C848.384,11746.7 848.401,11746.7 848.419,11746.7ZM847.417,11746.5L847.402,11746.5L847.342,11746.5L847.332,11746.5L847.36,11746.4C847.378,11746.4 847.397,11746.5 847.417,11746.5ZM917.825,11599.4C917.351,11599.8 916.916,11600.3 916.552,11600.9C916.545,11600.9 916.538,11600.9 916.531,11600.9C916.925,11600.2 917.37,11599.8 917.825,11599.4ZM849.541,11751.2L850.087,11750C850.071,11750.2 850.044,11750.4 850.007,11750.7C849.873,11750.9 849.719,11751.1 849.541,11751.2ZM845.927,11750.2C845.926,11750.2 845.926,11750.2 845.926,11750.2L845.927,11750.2ZM843.746,11634L841.915,11634C842.847,11633.8 843.465,11633.9 843.746,11634ZM809.478,11717.5C809.416,11717.5 809.358,11717.5 809.306,11717.5C809.193,11717.5 809.022,11717.4 808.83,11717.3L809.478,11717.5ZM845.511,11751.3L845.754,11750.6L845.497,11751.3L845.511,11751.3ZM851.138,11743.1L851.125,11742.7C851.075,11742.7 851.024,11742.6 850.971,11742.6L850.955,11742.8C851.019,11742.9 851.08,11743 851.138,11743.1ZM807.228,11715.7C807.399,11715.9 807.609,11716.2 807.872,11716.3L807.228,11715.7ZM921.38,11598.7L921.401,11598.8L921.431,11598.8L921.397,11598.7L921.38,11598.7ZM814.404,11712L814.277,11713C814.341,11712.7 814.384,11712.4 814.404,11712ZM921.616,11598.9L921.623,11598.9C921.769,11599 921.908,11599.1 922.04,11599.3C921.882,11599.1 921.735,11599 921.616,11598.9ZM806.579,11713.9L806.505,11713.4C806.521,11713.6 806.547,11713.7 806.579,11713.9ZM806.484,11712.9L806.654,11711.4C806.527,11712 806.48,11712.5 806.484,11712.9ZM921.112,11598.7L921.118,11598.7L921.223,11598.6L921.22,11598.6L921.112,11598.7ZM921.093,11598.7L921.085,11598.7L919.041,11600L919.034,11600.1L921.093,11598.7ZM839.184,11707.3C839.63,11708.4 839.841,11709.2 839.951,11710L840.036,11711.6C840.023,11712.1 839.971,11712.7 839.85,11713.5C839.705,11714.5 838.867,11719.1 837.342,11723.5C837.174,11724 836.239,11726.7 835.056,11729.1C834.547,11730.1 834.015,11731.1 833.492,11731.9L831.78,11733.6L830.517,11734.3L829.404,11734.6L828.443,11734.6L827.42,11734.3C827.18,11734.2 826.897,11734 826.741,11733.9C825.877,11733.5 825.222,11732.6 824.904,11731.4C824.843,11731.2 824.736,11730.8 824.651,11730.5L824.432,11727.9L824.787,11725.9C824.858,11725.6 824.932,11725.2 824.978,11724.7C825.235,11721.8 825.079,11719 824.996,11716.9C824.956,11715.9 824.96,11714.6 824.962,11714.4C824.967,11713.6 825.091,11712.9 825.327,11712.2C825.601,11711.3 826.338,11709.8 826.931,11708.8C827.619,11707.6 828.593,11706.8 829.64,11706.4L834.987,11704.8C836.409,11704.3 837.783,11704.9 838.592,11706.2L838.884,11706.7C838.997,11706.9 839.097,11707.1 839.184,11707.3ZM835.59,11710.4L835.298,11709.9L829.951,11711.6C829.597,11712.2 829.123,11713.1 828.959,11713.6C828.958,11713.8 828.953,11714.9 828.988,11715.8C829.081,11718.1 829.234,11721.3 828.947,11724.5C828.861,11725.4 828.722,11726.1 828.587,11726.7C828.469,11727.2 828.318,11727.4 828.489,11728.2C828.556,11728.5 828.641,11728.8 828.69,11729C828.818,11729 829.05,11729.1 829.246,11729.2C829.775,11729.5 830.291,11729.1 830.379,11729C830.89,11728.6 831.343,11727.7 831.813,11726.7C832.818,11724.7 833.609,11722.4 833.752,11722C835.069,11718.2 835.802,11714.2 835.927,11713.4C836.155,11711.8 836.044,11711.5 835.59,11710.4Z" style="fill:rgb(255,230,203);"/>
                        </g>
                    </g>
                </g>
                <g transform="matrix(0.639146,0,0,0.438777,344.716,74.2619)">
                    <path d="M864.456,192.273C864.456,188.497 861.395,185.436 857.619,185.436L843.631,185.436C842.096,185.436 839.72,185.449 837.411,185.464L837.411,179.216C837.411,175.783 840.198,172.995 843.631,172.995L901.655,172.995C901.647,175.377 901.639,177.802 901.639,179.216C901.639,182.649 898.852,185.436 895.419,185.436L883.734,185.436C879.958,185.436 876.897,188.497 876.897,192.273L876.897,295.779C876.897,299.555 879.958,302.616 883.734,302.616L896.571,302.616C898.124,302.616 900.559,302.585 902.942,302.547C902.86,305.008 902.791,307.477 902.791,308.836C902.791,312.269 900.004,315.057 896.571,315.057L838.622,315.057C838.59,312.636 838.562,310.174 838.562,308.836C838.562,305.403 841.35,302.616 844.783,302.616L857.619,302.616C861.395,302.616 864.456,299.555 864.456,295.779L864.456,192.273Z" style="fill:rgb(255,148,30);"/>
                    <path d="M881.591,193.126L881.591,294.926C881.994,295.19 882.979,295.779 883.734,295.779L896.571,295.779C898.112,295.779 900.527,295.748 902.891,295.71C904.184,295.69 905.426,296.447 906.323,297.804C907.22,299.161 907.693,300.997 907.63,302.879C907.553,305.21 907.485,307.549 907.485,308.836C907.485,315.263 902.997,321.894 896.571,321.894L838.622,321.894C836.065,321.894 833.978,318.913 833.929,315.189C833.896,312.717 833.869,310.202 833.869,308.836C833.869,302.41 838.356,295.779 844.783,295.779L857.619,295.779C858.374,295.779 859.359,295.19 859.763,294.926L859.763,193.126C859.359,192.862 858.374,192.273 857.619,192.273L843.631,192.273C842.101,192.273 839.734,192.286 837.432,192.301C836.183,192.309 834.984,191.592 834.099,190.309C833.214,189.026 832.717,187.283 832.717,185.464L832.717,179.216C832.717,172.789 837.205,166.158 843.631,166.158L901.655,166.158C902.905,166.158 904.102,166.884 904.983,168.174C905.864,169.464 906.356,171.212 906.349,173.032C906.34,175.399 906.333,177.81 906.333,179.216C906.333,185.642 901.845,192.273 895.419,192.273L883.734,192.273C882.979,192.273 881.994,192.862 881.591,193.126ZM864.456,192.273L864.456,295.779C864.456,299.555 861.395,302.616 857.619,302.616L844.783,302.616C841.35,302.616 838.562,305.403 838.562,308.836C838.562,310.174 838.59,312.636 838.622,315.057L896.571,315.057C900.004,315.057 902.791,312.269 902.791,308.836C902.791,307.477 902.86,305.008 902.942,302.547C900.559,302.585 898.124,302.616 896.571,302.616L883.734,302.616C879.958,302.616 876.897,299.555 876.897,295.779L876.897,192.273C876.897,188.497 879.958,185.436 883.734,185.436L895.419,185.436C898.852,185.436 901.639,182.649 901.639,179.216C901.639,177.802 901.647,175.377 901.655,172.995L843.631,172.995C840.198,172.995 837.411,175.783 837.411,179.216L837.411,185.464C839.72,185.449 842.096,185.436 843.631,185.436L857.619,185.436C861.395,185.436 864.456,188.497 864.456,192.273Z" style="fill:rgb(255,230,203);"/>
                </g>
                <g transform="matrix(0.643452,0,0,0.64405,336.727,-7346.12)">
                    <path d="M949.672,11640.4C976.379,11640.4 998.06,11662 998.06,11688.8C998.06,11715.5 976.379,11737.1 949.672,11737.1C922.966,11737.1 901.285,11715.5 901.285,11688.8C901.285,11662 922.966,11640.4 949.672,11640.4ZM949.672,11655.6C931.38,11655.6 916.526,11670.5 916.526,11688.8C916.526,11707 931.38,11721.9 949.672,11721.9C967.965,11721.9 982.819,11707 982.819,11688.8C982.819,11670.5 967.965,11655.6 949.672,11655.6Z" style="fill:rgb(255,148,30);"/>
                    <path d="M949.672,11635.7C978.951,11635.7 1002.72,11659.5 1002.72,11688.8C1002.72,11718 978.951,11741.8 949.672,11741.8C920.394,11741.8 896.623,11718 896.623,11688.8C896.623,11659.5 920.394,11635.7 949.672,11635.7ZM949.672,11640.4C922.966,11640.4 901.285,11662 901.285,11688.8C901.285,11715.5 922.966,11737.1 949.672,11737.1C976.379,11737.1 998.06,11715.5 998.06,11688.8C998.06,11662 976.379,11640.4 949.672,11640.4ZM949.672,11655.6C967.965,11655.6 982.819,11670.5 982.819,11688.8C982.819,11707 967.965,11721.9 949.672,11721.9C931.38,11721.9 916.526,11707 916.526,11688.8C916.526,11670.5 931.38,11655.6 949.672,11655.6ZM949.672,11660.3C933.952,11660.3 921.188,11673 921.188,11688.8C921.188,11704.5 933.952,11717.2 949.672,11717.2C965.393,11717.2 978.157,11704.5 978.157,11688.8C978.157,11673 965.393,11660.3 949.672,11660.3Z" style="fill:rgb(255,230,203);"/>
                </g>
            </g>
        </g>
    </g>
</svg>
